# xmcd CD database file
#
# Track frame offsets:
#	150
#	14469
#	28488
#	42993
#	58905
#	78708
#	91500
#	110312
#	123386
#	135042
#	148549
#	161750
#	175001
#	189585
#	214551
#	228208
#	242392
#	257380
#	269615
#	280468
#
# Disc length: 3919 seconds
#
# Revision: 0
# Processed by: cddbd v1.5.2PL0 Copyright (c) Steve Scherf et al.
# Submitted via: CDex 1.51
#
DISCID=100f4d14
DTITLE=Orquesta Aragon - The 70th Anniversary Album CD2
DYEAR=2009
DGENRE=Salsa
TTITLE0=Silencio
TTITLE1=Calculadora
TTITLE2=Los Tres Amigos
TTITLE3=Muanga
TTITLE4=Baila Mi Onda
TTITLE5=Caminito De Guarenas
TTITLE6=Que Será El Amor
TTITLE7=Parampampan
TTITLE8=Los Sabrosones
TTITLE9=Chachachá En La Playa
TTITLE10=Ven Morena
TTITLE11=Virgen De Regla
TTITLE12=La Reina Isabel
TTITLE13=Popurí de Boleros 
TTITLE14=Besito Con Mozancha
TTITLE15=BeIla Perla de Sur
TTITLE16=Kilimanjaro
TTITLE17=Guajira Simale
TTITLE18=En Casa de Tomas
TTITLE19=Tengo Una Muñeca
EXTD=YEAR: 2009
EXTT0=
EXTT1=
EXTT2=
EXTT3=
EXTT4=
EXTT5=
EXTT6=
EXTT7=
EXTT8=
EXTT9=
EXTT10=
EXTT11=
EXTT12=
EXTT13=
EXTT14=
EXTT15=
EXTT16=
EXTT17=
EXTT18=
EXTT19=
PLAYORDER=
